<?xml version="1.0" encoding="UTF-8"?>
<!DOCTYPE svg PUBLIC "-//W3C//DTD SVG 1.1//EN" "http://www.w3.org/Graphics/SVG/1.1/DTD/svg11.dtd">
<!-- Creator: CorelDRAW -->
<svg xmlns="http://www.w3.org/2000/svg" xml:space="preserve" width="12.3609cm" height="12.3609cm" version="1.1" style="shape-rendering:geometricPrecision; text-rendering:geometricPrecision; image-rendering:optimizeQuality; fill-rule:evenodd; clip-rule:evenodd"
viewBox="0 0 332090 332090"
 xmlns:xlink="http://www.w3.org/1999/xlink"
 xmlns:xodm="http://www.corel.com/coreldraw/odm/2003">
 <defs>
  <style type="text/css">
   <![CDATA[
    .fil0 {fill:#FEFEFE}
   ]]>
  </style>
 </defs>
 <g id="Camada_x0020_1">
  <metadata id="CorelCorpID_0Corel-Layer"/>
  <g id="_1766099595280">
   <g>
    <g>
     <polygon class="fil0" points="138467,75351 40677,244726 180284,244727 159287,208363 97919,208361 156591,106739 "/>
     <polygon class="fil0" points="166045,27582 147924,58973 195646,141632 231892,141632 "/>
     <polygon class="fil0" points="166018,123119 147476,155215 199202,244733 236256,244727 203424,187849 222055,187848 254697,244727 291413,244726 239880,155468 184720,155465 "/>
    </g>
   </g>
   <g>
    <path class="fil0" d="M166045 11263l7965 201 7861 598 7746 984 7622 1361 7488 1728 7345 2086 7192 2433 7029 2771 6857 3100 6674 3418 6482 3727 6280 4026 6068 4316 5847 4595 5616 4865 5376 5125 5125 5376 4864 5616 4595 5847 4316 6068 4026 6280 3727 6482 3418 6673 3100 6857 2772 7029 2433 7192 2086 7345 1728 7488 1361 7622 984 7746 598 7860 201 7965 -201 7965 -598 7861 -984 7746 -1361 7622 -1728 7488 -2086 7345 -2433 7192 -2772 7029 -3100 6857 -3418 6674 -3727 6482 -4026 6280 -4316 6068 -4595 5847 -4864 5616 -5125 5376 -5376 5125 -5616 4864 -5847 4595 -6068 4316 -6280 4026 -6482 3727 -6674 3418 -6857 3100 -7029 2772 -7192 2433 -7345 2086 -7488 1728 -7622 1361 -7746 984 -7861 598 -7965 201 -7965 -201 -7860 -598 -7746 -984 -7622 -1361 -7488 -1728 -7345 -2086 -7192 -2433 -7029 -2772 -6857 -3100 -6673 -3418 -6482 -3727 -6280 -4026 -6068 -4316 -5847 -4595 -5616 -4864 -5376 -5125 -5125 -5376 -4865 -5616 -4595 -5847 -4316 -6068 -4026 -6280 -3727 -6482 -3418 -6674 -3100 -6857 -2771 -7029 -2433 -7192 -2086 -7345 -1728 -7488 -1361 -7622 -984 -7746 -598 -7861 -201 -7965 201 -7965 598 -7860 984 -7746 1361 -7622 1728 -7488 2086 -7345 2433 -7192 2771 -7029 3100 -6857 3418 -6673 3727 -6482 4026 -6280 4316 -6068 4595 -5847 4865 -5616 5125 -5376 5376 -5125 5616 -4865 5847 -4595 6068 -4316 6280 -4026 6482 -3727 6673 -3418 6857 -3100 7029 -2771 7192 -2433 7345 -2086 7488 -1728 7622 -1361 7746 -984 7860 -598 7965 -201zm0 -3158l8128 205 8021 610 7904 1004 7778 1389 7641 1764 7495 2129 7339 2483 7172 2828 6996 3163 6810 3488 6614 3803 6408 4108 6192 4404 5966 4689 5731 4964 5486 5230 5230 5485 4964 5731 4689 5966 4404 6192 4108 6408 3803 6614 3488 6810 3163 6996 2828 7172 2483 7339 2129 7495 1764 7641 1389 7778 1004 7904 610 8021 205 8128 -205 8128 -610 8021 -1004 7904 -1389 7778 -1764 7641 -2129 7495 -2483 7339 -2828 7172 -3163 6996 -3488 6810 -3803 6614 -4108 6408 -4404 6192 -4689 5966 -4964 5731 -5230 5486 -5486 5230 -5731 4964 -5966 4689 -6192 4404 -6408 4108 -6614 3803 -6810 3488 -6996 3163 -7172 2828 -7339 2483 -7495 2129 -7641 1764 -7778 1389 -7904 1004 -8021 610 -8128 205 -8128 -205 -8021 -610 -7904 -1004 -7778 -1389 -7641 -1764 -7495 -2129 -7339 -2483 -7172 -2828 -6996 -3163 -6810 -3488 -6614 -3803 -6408 -4108 -6192 -4404 -5966 -4689 -5731 -4964 -5485 -5230 -5230 -5486 -4964 -5731 -4689 -5966 -4404 -6192 -4108 -6408 -3803 -6614 -3488 -6810 -3163 -6996 -2828 -7172 -2483 -7339 -2129 -7495 -1764 -7641 -1389 -7778 -1004 -7904 -610 -8021 -205 -8128 205 -8128 610 -8021 1004 -7904 1389 -7778 1764 -7641 2129 -7495 2483 -7339 2828 -7172 3163 -6996 3488 -6810 3803 -6614 4108 -6408 4404 -6192 4689 -5966 4964 -5731 5230 -5485 5485 -5230 5731 -4964 5966 -4689 6192 -4404 6408 -4108 6614 -3803 6810 -3488 6996 -3163 7172 -2828 7339 -2483 7495 -2129 7641 -1764 7778 -1389 7904 -1004 8021 -610 8128 -205z"/>
    <path class="fil0" d="M166045 0c91704,0 166045,74341 166045,166045 0,91704 -74341,166045 -166045,166045 -91704,0 -166045,-74341 -166045,-166045 0,-91704 74341,-166045 166045,-166045zm0 8302c87119,0 157743,70624 157743,157743 0,87119 -70624,157743 -157743,157743 -87119,0 -157743,-70624 -157743,-157743 0,-87119 70624,-157743 157743,-157743z"/>
   </g>
  </g>
 </g>
</svg>
